D:\school\WTK\thesis\model\3dpredictsim\Results\batch_windlass\Pog_s1_tmt_aCst_d00_k800_WL30_ig24_act_TTC_GRF.mot
nRows=25
nColumns=19

name D:\school\WTK\thesis\model\3dpredictsim\Results\batch_windlass\Pog_s1_tmt_aCst_d00_k800_WL30_ig24_act_TTC_GRF.mot
datacolumns 19
datarows 25
range 0.0000000000 0.2952632643
endheader
time 	ground_force_vx	ground_force_vy	ground_force_vz	ground_force_px	ground_force_py	ground_force_pz	1_ground_force_vx	1_ground_force_vy	1_ground_force_vz	1_ground_force_px	1_ground_force_py	1_ground_force_pz	ground_torque_x	ground_torque_y	ground_torque_z	1_ground_torque_x	1_ground_torque_y	1_ground_torque_z
        0.0000000000	      -65.3963565663	       53.1732429353	       15.8996447436	        0.1690287147	        0.0000000000	        0.0596784102	       69.4835614083	      316.6667712961	       -4.7507527136	       -0.3722770985	        0.0000000000	       -0.0295419801	        0.0000000000	        0.0000000000	        0.0000000000	        0.0000000000	        0.0000000000	        0.0000000000	
        0.0123026360	     -140.1033378226	      149.2550939457	       50.3002926152	        0.1797983729	        0.0000000000	        0.0586313621	       40.7465525409	      225.8810503588	      -14.3152864782	       -0.3607189236	        0.0000000000	       -0.0239170423	        0.0000000000	        0.0000000000	        0.0000000000	        0.0000000000	        0.0000000000	        0.0000000000	
        0.0246052720	      -86.3766661993	      412.7129989307	        6.7107793640	        0.1957244219	        0.0000000000	        0.0590840032	       31.0132201014	      188.4397337594	      -13.6017162865	       -0.3598655514	        0.0000000000	       -0.0232661671	        0.0000000000	        0.0000000000	        0.0000000000	        0.0000000000	        0.0000000000	        0.0000000000	
        0.0369079080	     -110.5978976102	      724.6870507510	      -20.0154491565	        0.2068059005	        0.0000000000	        0.0606768129	       25.8723218475	      135.3926279999	      -16.2444779554	       -0.3595218721	        0.0000000000	       -0.0235985994	        0.0000000000	        0.0000000000	        0.0000000000	        0.0000000000	        0.0000000000	        0.0000000000	
        0.0492105440	     -149.8081805206	      905.7837567397	      -27.0014486904	        0.2148077724	        0.0000000000	        0.0612055366	       12.2533720023	       72.9604403075	      -14.2815169997	       -0.3595514874	        0.0000000000	       -0.0239172240	        0.0000000000	        0.0000000000	        0.0000000000	        0.0000000000	        0.0000000000	        0.0000000000	
        0.0615131801	     -178.8778790549	      983.4383346412	      -27.9025848897	        0.2251796792	        0.0000000000	        0.0603707090	       -4.5904339855	       14.2051030150	       -2.7099908589	       -0.3627708631	        0.0000000000	       -0.0232204601	        0.0000000000	        0.0000000000	        0.0000000000	        0.0000000000	        0.0000000000	        0.0000000000	
        0.0738158161	     -168.9792691446	      967.9751623117	      -28.5639052713	        0.2335630381	        0.0000000000	        0.0592928432	        0.1369070953	       -0.1211641265	       -0.0082675038	        0.0000000000	        0.0000000000	        0.0000000000	        0.0000000000	        0.0000000000	        0.0000000000	        0.0000000000	        0.0000000000	        0.0000000000	
        0.0861184521	     -144.7182235616	      883.1406079482	      -25.8937182915	        0.2387408155	        0.0000000000	        0.0584898800	       -0.6513335150	        0.4438647889	        0.0827364167	        0.0000000000	        0.0000000000	        0.0000000000	        0.0000000000	        0.0000000000	        0.0000000000	        0.0000000000	        0.0000000000	        0.0000000000	
        0.0984210881	     -123.0811694408	      798.2572733573	      -21.5435517208	        0.2422512820	        0.0000000000	        0.0580533108	       -2.6127256279	        1.5801310732	        0.3057577109	        0.0000000000	        0.0000000000	        0.0000000000	        0.0000000000	        0.0000000000	        0.0000000000	        0.0000000000	        0.0000000000	        0.0000000000	
        0.1107237241	     -104.7444329683	      738.2885377758	      -19.8895386086	        0.2454448515	        0.0000000000	        0.0577759005	       -0.7389079907	        0.4159118131	        0.0775603007	        0.0000000000	        0.0000000000	        0.0000000000	        0.0000000000	        0.0000000000	        0.0000000000	        0.0000000000	        0.0000000000	        0.0000000000	
        0.1230263601	      -89.2845310022	      692.7995568776	      -19.6688895483	        0.2485646050	        0.0000000000	        0.0575811779	       -0.4122265160	        0.2208972056	        0.0379139743	        0.0000000000	        0.0000000000	        0.0000000000	        0.0000000000	        0.0000000000	        0.0000000000	        0.0000000000	        0.0000000000	        0.0000000000	
        0.1353289961	      -76.4743725721	      655.9368727462	      -19.8524140903	        0.2517565213	        0.0000000000	        0.0574343877	       -0.2822806916	        0.1479682233	        0.0222843520	        0.0000000000	        0.0000000000	        0.0000000000	        0.0000000000	        0.0000000000	        0.0000000000	        0.0000000000	        0.0000000000	        0.0000000000	
        0.1476316321	      -65.4381068101	      629.8103382983	      -20.2267147546	        0.2551021421	        0.0000000000	        0.0573084880	       -0.1483556401	        0.0764031113	        0.0099167591	        0.0000000000	        0.0000000000	        0.0000000000	        0.0000000000	        0.0000000000	        0.0000000000	        0.0000000000	        0.0000000000	        0.0000000000	
        0.1599342681	      -55.7581902466	      610.7600339581	      -20.4231851150	        0.2587852199	        0.0000000000	        0.0571552530	       -0.0835901258	        0.0415010855	        0.0053113151	        0.0000000000	        0.0000000000	        0.0000000000	        0.0000000000	        0.0000000000	        0.0000000000	        0.0000000000	        0.0000000000	        0.0000000000	
        0.1722369042	      -47.2807502683	      597.4025459994	      -20.6220754195	        0.2631773949	        0.0000000000	        0.0569068640	       -0.0577533316	        0.0275431009	        0.0035964748	        0.0000000000	        0.0000000000	        0.0000000000	        0.0000000000	        0.0000000000	        0.0000000000	        0.0000000000	        0.0000000000	        0.0000000000	
        0.1845395402	      -42.1876899449	      589.1780320014	      -20.7769075335	        0.2680972196	        0.0000000000	        0.0565375382	       -0.0496792292	        0.0227960692	        0.0030926147	        0.0000000000	        0.0000000000	        0.0000000000	        0.0000000000	        0.0000000000	        0.0000000000	        0.0000000000	        0.0000000000	        0.0000000000	
        0.1968421762	      -37.3515292042	      584.4954440099	      -20.7170700817	        0.2733268932	        0.0000000000	        0.0560744470	       -0.0524476967	        0.0232702232	        0.0032251769	        0.0000000000	        0.0000000000	        0.0000000000	        0.0000000000	        0.0000000000	        0.0000000000	        0.0000000000	        0.0000000000	        0.0000000000	
        0.2091448122	      -33.2534653340	      581.0206510155	      -20.4176578360	        0.2787305595	        0.0000000000	        0.0555234491	       -0.0669260328	        0.0288789085	        0.0039405926	        0.0000000000	        0.0000000000	        0.0000000000	        0.0000000000	        0.0000000000	        0.0000000000	        0.0000000000	        0.0000000000	        0.0000000000	
        0.2214474482	      -29.8770843222	      578.3958229865	      -20.1283179233	        0.2840403749	        0.0000000000	        0.0549300355	       -0.0998809071	        0.0421264309	        0.0055008433	        0.0000000000	        0.0000000000	        0.0000000000	        0.0000000000	        0.0000000000	        0.0000000000	        0.0000000000	        0.0000000000	        0.0000000000	
        0.2337500842	      -26.6311862547	      575.9335021738	      -19.9953550038	        0.2891776964	        0.0000000000	        0.0543218005	       -0.1653589216	        0.0684083724	        0.0084158980	        0.0000000000	        0.0000000000	        0.0000000000	        0.0000000000	        0.0000000000	        0.0000000000	        0.0000000000	        0.0000000000	        0.0000000000	
        0.2460527202	      -23.2802813821	      573.4242172178	      -19.9995502651	        0.2941587750	        0.0000000000	        0.0537077758	       -0.2842577650	        0.1156173771	        0.0133200268	        0.0000000000	        0.0000000000	        0.0000000000	        0.0000000000	        0.0000000000	        0.0000000000	        0.0000000000	        0.0000000000	        0.0000000000	
        0.2583553562	      -19.9047161074	      570.2759340063	      -20.0730868700	        0.2989278379	        0.0000000000	        0.0531035673	       -0.4737052888	        0.1898313052	        0.0205126051	        0.0000000000	        0.0000000000	        0.0000000000	        0.0000000000	        0.0000000000	        0.0000000000	        0.0000000000	        0.0000000000	        0.0000000000	
        0.2706579922	      -16.5284991052	      566.5601823358	      -20.3093830851	        0.3034826107	        0.0000000000	        0.0525162890	       -0.7275043631	        0.2879548981	        0.0292685336	        0.0000000000	        0.0000000000	        0.0000000000	        0.0000000000	        0.0000000000	        0.0000000000	        0.0000000000	        0.0000000000	        0.0000000000	
        0.2829606282	      -13.2553669631	      562.1367106615	      -20.3139549246	        0.3077871992	        0.0000000000	        0.0519591396	       -1.0021499854	        0.3929642596	        0.0373913992	        0.0000000000	        0.0000000000	        0.0000000000	        0.0000000000	        0.0000000000	        0.0000000000	        0.0000000000	        0.0000000000	        0.0000000000	
        0.2952632643	      -10.1761861291	      556.8697487183	      -20.0488360448	        0.3118053036	        0.0000000000	        0.0514409867	       -1.2360272476	        0.4816072926	        0.0422596523	        0.0000000000	        0.0000000000	        0.0000000000	        0.0000000000	        0.0000000000	        0.0000000000	        0.0000000000	        0.0000000000	        0.0000000000	
